<svg id="Layer_1" data-name="Layer 1" xmlns="http://www.w3.org/2000/svg" viewBox="0 0 49.24 10.35">
  <defs>
    <style>
      .cls-1 {
        fill: #f90; /* Set the fill color to the original Amazon orange */
      }
    </style>
  </defs>
  <path class="cls-1" d="M46.45,21.33a8.87,8.87,0,0,0-5,1.45c-.41.31-.41.73.1.73,1.65-.21,5.35-.73,6.07.20s-.72,4.36-1.34,6c-.20.52.21.62.62.31,2.78-2.39,3.5-7.26,3-7.88C49.54,21.64,48.09,21.33,46.45,21.33Z" transform="translate(-0.76 -21.33)"/>
  <path class="cls-1" d="M1.06,22.46a.36.36,0,0,0-.22.13.38.38,0,0,0,.06.52,39,39,0,0,0,10.16,5.82,39.36,39.36,0,0,0,11.53,2.66,37.64,37.64,0,0,0,11.83-1.08,32.72,32.72,0,0,0,10.79-4.85.74.74,0,0,0-.74-1.28l0,0a49.44,49.44,0,0,1-10.63,3.37,46,46,0,0,1-11,.92,47.45,47.45,0,0,1-11-1.91A57.57,57.57,0,0,1,1.33,22.51l0,0A.37.37,0,0,0,1.06,22.46Z" transform="translate(-0.76 -21.33)"/>
</svg>
