<svg width="502" height="344" viewBox="0 0 502 344" fill="none" xmlns="http://www.w3.org/2000/svg">
    <path
        d="M494.909 0H7.90918C6.0533 0.00205925 4.27401 0.740227 2.9617 2.05254C1.64939 3.36484 0.911239 5.14412 0.90918 7V337C0.911242 338.856 1.64942 340.635 2.96173 341.947C4.27404 343.26 6.0533 343.998 7.90918 344H494.909C496.765 343.998 498.544 343.26 499.857 341.947C501.169 340.635 501.907 338.856 501.909 337V7C501.907 5.14412 501.169 3.36484 499.857 2.05254C498.544 0.740227 496.765 0.00205925 494.909 0ZM499.909 337C499.909 338.326 499.382 339.597 498.444 340.535C497.507 341.472 496.235 341.999 494.909 342H7.90918C6.58326 341.999 5.3118 341.472 4.37424 340.535C3.43667 339.597 2.90971 338.326 2.90918 337V7C2.90971 5.67408 3.43667 4.40262 4.37424 3.46506C5.3118 2.52749 6.58326 2.00053 7.90918 2H494.909C496.235 2.00053 497.507 2.52749 498.444 3.46506C499.382 4.40262 499.909 5.67408 499.909 7V337Z"
        fill="#3F3D56" />
    <path d="M500.91 28.04H1.90967V30.04H500.91V28.04Z" fill="#3F3D56" />
    <path
        d="M18.9097 21C22.2234 21 24.9097 18.3137 24.9097 15C24.9097 11.6863 22.2234 9 18.9097 9C15.596 9 12.9097 11.6863 12.9097 15C12.9097 18.3137 15.596 21 18.9097 21Z"
        fill="#3F3D56" />
    <path
        d="M36.1597 21C39.4734 21 42.1597 18.3137 42.1597 15C42.1597 11.6863 39.4734 9 36.1597 9C32.846 9 30.1597 11.6863 30.1597 15C30.1597 18.3137 32.846 21 36.1597 21Z"
        fill="#3F3D56" />
    <path
        d="M53.4097 21C56.7234 21 59.4097 18.3137 59.4097 15C59.4097 11.6863 56.7234 9 53.4097 9C50.096 9 47.4097 11.6863 47.4097 15C47.4097 18.3137 50.096 21 53.4097 21Z"
        fill="#3F3D56" />
    <path
        d="M123.777 74.5H39.7773C37.9208 74.5 36.1404 73.7625 34.8276 72.4498C33.5149 71.137 32.7773 69.3565 32.7773 67.5C32.7773 65.6435 33.5149 63.863 34.8276 62.5503C36.1404 61.2375 37.9208 60.5 39.7773 60.5H123.777C125.634 60.5 127.414 61.2375 128.727 62.5503C130.04 63.863 130.777 65.6435 130.777 67.5C130.777 69.3565 130.04 71.137 128.727 72.4498C127.414 73.7625 125.634 74.5 123.777 74.5Z"
        fill="#CCCCCC" />
    <path
        d="M238.777 108.5H39.7773C37.9208 108.5 36.1404 107.762 34.8276 106.45C33.5149 105.137 32.7773 103.357 32.7773 101.5C32.7773 99.6435 33.5149 97.863 34.8276 96.5502C36.1404 95.2375 37.9208 94.5 39.7773 94.5H238.777C240.634 94.5 242.414 95.2375 243.727 96.5502C245.04 97.863 245.777 99.6435 245.777 101.5C245.777 103.357 245.04 105.137 243.727 106.45C242.414 107.762 240.634 108.5 238.777 108.5Z"
        fill="#CCCCCC" />
    <path
        d="M302.997 122.023C293.623 135.69 288.159 151.658 287.195 168.203C286.231 184.748 289.804 201.242 297.527 215.906C305.25 230.569 316.831 242.845 331.021 251.409C345.21 259.973 361.468 264.499 378.041 264.5V185.06L302.997 122.023Z"
        fill="#6C63FF" />
    <path
        d="M378.042 82.5C363.262 82.4906 348.704 86.0851 335.627 92.972C322.551 99.859 311.351 109.831 302.998 122.023L378.042 185.06V82.5Z"
        fill="#CCCCCC" />
    <path
        d="M378.042 265.5H377.042V81.5H378.042C402.441 81.5 425.842 91.1928 443.095 108.446C460.349 125.7 470.042 149.1 470.042 173.5C470.042 197.9 460.349 221.3 443.095 238.554C425.842 255.807 402.441 265.5 378.042 265.5ZM379.042 83.5054V263.495C402.736 263.231 425.371 253.634 442.034 236.785C458.696 219.936 468.041 197.196 468.041 173.5C468.041 149.804 458.696 127.064 442.034 110.215C425.371 93.3663 402.736 83.7688 379.042 83.5054Z"
        fill="#3F3D56" />
    <path
        d="M97.7773 303H80.7773C79.5843 302.999 78.4405 302.524 77.5969 301.68C76.7532 300.837 76.2787 299.693 76.2773 298.5V249.5C76.2787 248.307 76.7532 247.163 77.5969 246.319C78.4405 245.476 79.5843 245.001 80.7773 245H97.7773C98.9704 245.001 100.114 245.476 100.958 246.319C101.802 247.163 102.276 248.307 102.277 249.5V298.5C102.276 299.693 101.801 300.837 100.958 301.68C100.114 302.524 98.9704 302.999 97.7773 303Z"
        fill="#CCCCCC" />
    <path
        d="M147.777 303H130.777C129.584 302.999 128.44 302.524 127.597 301.68C126.753 300.837 126.279 299.693 126.277 298.5V226.5C126.279 225.307 126.753 224.163 127.597 223.319C128.44 222.476 129.584 222.001 130.777 222H147.777C148.97 222.001 150.114 222.476 150.958 223.319C151.802 224.163 152.276 225.307 152.277 226.5V298.5C152.276 299.693 151.801 300.837 150.958 301.68C150.114 302.524 148.97 302.999 147.777 303Z"
        fill="#FF6584" />
    <path
        d="M197.777 303H180.777C179.584 302.999 178.44 302.524 177.597 301.68C176.753 300.837 176.279 299.693 176.277 298.5V206.5C176.279 205.307 176.753 204.163 177.597 203.319C178.44 202.476 179.584 202.001 180.777 202H197.777C198.97 202.001 200.114 202.476 200.958 203.319C201.802 204.163 202.276 205.307 202.277 206.5V298.5C202.276 299.693 201.801 300.837 200.958 301.68C200.114 302.524 198.97 302.999 197.777 303Z"
        fill="#6C63FF" />
    <path
        d="M97.7773 303.5H80.7773C79.4517 303.498 78.1809 302.971 77.2435 302.034C76.3062 301.096 75.7789 299.826 75.7773 298.5V188.5C75.7789 187.174 76.3062 185.903 77.2435 184.966C78.1809 184.029 79.4517 183.502 80.7773 183.5H97.7773C99.103 183.502 100.374 184.029 101.311 184.966C102.249 185.903 102.776 187.174 102.777 188.5V298.5C102.776 299.826 102.249 301.096 101.311 302.034C100.374 302.971 99.103 303.498 97.7773 303.5ZM80.7773 185.5C79.982 185.501 79.2194 185.817 78.657 186.38C78.0946 186.942 77.7782 187.705 77.7773 188.5V298.5C77.7782 299.295 78.0946 300.058 78.657 300.62C79.2194 301.183 79.982 301.499 80.7773 301.5H97.7773C98.5727 301.499 99.3353 301.183 99.8977 300.62C100.46 300.058 100.776 299.295 100.777 298.5V188.5C100.776 187.705 100.46 186.942 99.8977 186.38C99.3353 185.817 98.5727 185.501 97.7773 185.5H80.7773Z"
        fill="#3F3D56" />
    <path
        d="M147.777 303.5H130.777C129.452 303.498 128.181 302.971 127.244 302.034C126.306 301.096 125.779 299.826 125.777 298.5V188.5C125.779 187.174 126.306 185.903 127.244 184.966C128.181 184.029 129.452 183.502 130.777 183.5H147.777C149.103 183.502 150.374 184.029 151.311 184.966C152.249 185.903 152.776 187.174 152.777 188.5V298.5C152.776 299.826 152.249 301.096 151.311 302.034C150.374 302.971 149.103 303.498 147.777 303.5ZM130.777 185.5C129.982 185.501 129.219 185.817 128.657 186.38C128.095 186.942 127.778 187.705 127.777 188.5V298.5C127.778 299.295 128.095 300.058 128.657 300.62C129.219 301.183 129.982 301.499 130.777 301.5H147.777C148.573 301.499 149.335 301.183 149.898 300.62C150.46 300.058 150.776 299.295 150.777 298.5V188.5C150.776 187.705 150.46 186.942 149.898 186.38C149.335 185.817 148.573 185.501 147.777 185.5H130.777Z"
        fill="#3F3D56" />
    <path
        d="M197.777 303.5H180.777C179.452 303.498 178.181 302.971 177.244 302.034C176.306 301.096 175.779 299.826 175.777 298.5V188.5C175.779 187.174 176.306 185.903 177.244 184.966C178.181 184.029 179.452 183.502 180.777 183.5H197.777C199.103 183.502 200.374 184.029 201.311 184.966C202.249 185.903 202.776 187.174 202.777 188.5V298.5C202.776 299.826 202.249 301.096 201.311 302.034C200.374 302.971 199.103 303.498 197.777 303.5ZM180.777 185.5C179.982 185.501 179.219 185.817 178.657 186.38C178.095 186.942 177.778 187.705 177.777 188.5V298.5C177.778 299.295 178.095 300.058 178.657 300.62C179.219 301.183 179.982 301.499 180.777 301.5H197.777C198.573 301.499 199.335 301.183 199.898 300.62C200.46 300.058 200.776 299.295 200.777 298.5V188.5C200.776 187.705 200.46 186.942 199.898 186.38C199.335 185.817 198.573 185.501 197.777 185.5H180.777Z"
        fill="#3F3D56" />
</svg>