<svg width="511" height="670" viewBox="0 0 511 670" fill="none" xmlns="http://www.w3.org/2000/svg">
<path d="M278.672 6.80478L487.114 128.809C501.246 136.547 510.096 151.266 510.274 167.325V435.089C510.048 451.135 501.211 465.831 487.114 473.605L154.997 667.798C149.622 670.965 142.687 669.213 139.479 663.877C138.486 662.194 137.929 660.292 137.858 658.342V540.488L23.9102 473.605C9.81284 465.831 0.975616 451.135 0.75 435.089V167.325C0.927299 151.266 9.77796 136.547 23.9102 128.809L232.352 6.80478C246.683 -1.43493 264.341 -1.43493 278.672 6.80478Z" fill="#AECBFA"/>
<path d="M130.067 250.984C123.163 250.984 117.541 256.478 117.335 263.333L117.33 263.723L117.333 394.827L117.375 396.198C117.843 404.195 122.229 411.475 129.124 415.619L129.61 415.903L193.732 452.496V503.857L193.767 504.807C194.253 511.398 199.755 516.595 206.47 516.595C208.539 516.595 210.575 516.091 212.401 515.13L212.853 514.88L382.982 416.366L384.153 415.654C390.879 411.302 395.047 403.895 395.249 395.852L395.257 395.29V263.746C395.257 261.521 394.674 259.334 393.566 257.404C390.132 251.423 382.582 249.281 376.537 252.499L376.177 252.699L263.038 317.651L262.069 318.197C258.262 320.128 253.719 320.028 249.989 317.896L249.578 317.651L136.41 252.675C134.48 251.567 132.293 250.984 130.067 250.984Z" fill="#669DF6"/>
<path d="M265.166 103.776C260.445 101.07 254.681 100.966 249.879 103.473L249.417 103.724L124.676 174.155C122.685 175.28 121.033 176.919 119.894 178.901C116.458 184.881 118.413 192.483 124.238 196.081L124.593 196.292L249.312 267.957C254.103 270.709 259.965 270.776 264.805 268.165L265.27 267.904L388.074 196.249C389.999 195.126 391.596 193.517 392.705 191.583C396.135 185.6 394.174 178 388.344 174.407L387.99 174.197L265.166 103.776Z" fill="#185ABC"/>
</svg>
