<svg width="331" height="255" viewBox="0 0 331 255" fill="none" xmlns="http://www.w3.org/2000/svg">
<path fill-rule="evenodd" clip-rule="evenodd" d="M151 107H60.9999C59.8235 107 58.6944 106.797 57.646 106.424C56.2794 106.091 54.9402 105.449 53.7138 104.458L4.62165 64.7771C-0.330102 60.7747 -0.3301 53.2253 4.62165 49.2229L53.7138 9.54219C54.9402 8.55087 56.2794 7.90919 57.646 7.57632C58.6944 7.20316 59.8235 7 60.9999 7H151.458C152.732 2.94289 156.522 0 161 0H191C195.478 0 199.268 2.94289 200.542 7H291C296.523 7 301 11.4772 301 17V97C301 102.523 296.523 107 291 107H201V255H151V107Z" fill="url(#paint0_linear_1_6)"/>
<path d="M76.36 53.88V73.83C73.2333 74.8567 70.27 75.6033 67.47 76.07C64.67 76.5367 62.3133 76.77 60.4 76.77C54.0533 76.77 49.0833 75.1133 45.49 71.8C41.8967 68.4867 40.1 63.4 40.1 56.54C40.1 49.54 41.99 44.3133 45.77 40.86C49.55 37.36 54.87 35.61 61.73 35.61C65.3233 35.61 69.64 36.1467 74.68 37.22C74.68 38.1533 74.5867 39.5533 74.4 41.42C74.2133 43.24 74.0267 44.5233 73.84 45.27L71.32 45.2C68.24 45.1067 65.8367 45.06 64.11 45.06C58.93 45.06 56.1067 45.3633 55.64 45.97C54.8933 46.8567 54.3567 48.2333 54.03 50.1C53.75 51.9667 53.61 53.7633 53.61 55.49C53.61 58.6167 53.96 61.0433 54.66 62.77C55.36 64.4967 56.4333 65.71 57.88 66.41C59.3267 67.11 61.2867 67.46 63.76 67.46H64.04V53.88H76.36ZM101.771 76.91C94.8172 76.91 89.5905 75.2767 86.0905 72.01C82.6372 68.6967 80.9105 63.4 80.9105 56.12C80.9105 48.98 82.8239 43.7767 86.6505 40.51C90.4772 37.2433 95.5405 35.61 101.841 35.61C115.094 35.61 121.721 42.2133 121.721 55.42C121.721 62.0933 120.087 67.3433 116.821 71.17C113.601 74.9967 108.584 76.91 101.771 76.91ZM101.491 68.65C102.797 68.65 103.894 68.44 104.781 68.02C105.667 67.5533 106.367 66.76 106.881 65.64C107.861 63.7267 108.351 60.6 108.351 56.26C108.351 52.0133 107.861 48.9333 106.881 47.02C105.901 45.06 104.104 44.0333 101.491 43.94C100.511 43.94 99.4839 44.0567 98.4105 44.29C97.3839 44.4767 96.7305 44.7567 96.4505 45.13C95.8905 45.7833 95.4472 47.1833 95.1205 49.33C94.8405 51.43 94.7005 53.74 94.7005 56.26C94.7005 60.18 95.0739 63.05 95.8205 64.87C96.3339 66.2233 97.0572 67.2033 97.9905 67.81C98.9239 68.37 100.091 68.65 101.491 68.65ZM163.718 54.93C166.892 55.3033 169.155 56.3767 170.508 58.15C171.862 59.8767 172.538 61.9767 172.538 64.45C172.538 65.99 172.305 67.46 171.838 68.86C171.372 70.2133 170.812 71.38 170.158 72.36C169.505 73.2933 168.945 73.9 168.478 74.18C166.612 75.3933 160.918 76 151.398 76H137.818V36.1H154.268C158.002 36.1 161.012 36.31 163.298 36.73C165.632 37.1033 167.522 37.99 168.968 39.39C170.415 40.7433 171.138 42.82 171.138 45.62C171.138 48.0467 170.532 50.0067 169.318 51.5C168.152 52.9933 166.285 54.02 163.718 54.58V54.93ZM158.118 44.57C157.652 44.1033 157.092 43.8233 156.438 43.73C155.832 43.59 154.852 43.52 153.498 43.52C152.145 43.52 151.118 43.5433 150.418 43.59V52.13H151.118C151.352 52.13 152.332 52.13 154.058 52.13C155.785 52.13 156.928 52.0133 157.488 51.78C157.908 51.5933 158.282 51.1033 158.608 50.31C158.982 49.5167 159.168 48.6533 159.168 47.72C159.168 46.32 158.818 45.27 158.118 44.57ZM159.308 67.95C159.635 67.67 159.892 67.1567 160.078 66.41C160.312 65.6167 160.428 64.8233 160.428 64.03C160.428 63.05 160.288 62.14 160.008 61.3C159.775 60.4133 159.448 59.7833 159.028 59.41C158.608 58.99 158.002 58.71 157.208 58.57C156.462 58.43 155.178 58.36 153.358 58.36C152.192 58.36 151.212 58.3833 150.418 58.43V68.58C152.612 68.6267 154.572 68.6033 156.298 68.51C158.025 68.37 159.028 68.1833 159.308 67.95ZM200.088 67.25H188.468L186.368 76H173.488L186.368 36.1H202.818L215.138 76H202.188L200.088 67.25ZM194.208 44.71L190.078 59.48H198.408L194.488 44.71H194.208ZM248.747 74.67C247.02 75.4167 245.014 75.9533 242.727 76.28C240.44 76.6067 238.317 76.77 236.357 76.77C230.01 76.77 225.04 75.1133 221.447 71.8C217.854 68.4867 216.057 63.4 216.057 56.54C216.057 49.54 217.947 44.3133 221.727 40.86C225.507 37.36 230.827 35.61 237.687 35.61C240.954 35.61 244.36 36.0533 247.907 36.94C247.907 37.8733 247.814 39.2733 247.627 41.14C247.44 42.96 247.254 44.2433 247.067 44.99H242.657C239.437 44.99 236.894 45.06 235.027 45.2C233.207 45.2933 232.11 45.5033 231.737 45.83C231.037 46.4833 230.5 47.8133 230.127 49.82C229.754 51.78 229.567 53.67 229.567 55.49C229.567 58.6633 229.964 61.1133 230.757 62.84C231.55 64.52 232.554 65.64 233.767 66.2C234.934 66.76 236.87 67.04 239.577 67.04C241.724 67.04 244.524 66.8533 247.977 66.48L248.747 74.67ZM290.586 76H276.796L269.026 61.09C268.886 60.8567 268.512 60.2033 267.906 59.13C267.346 58.0567 266.716 57.03 266.016 56.05V76H253.416V36.1H266.016V54.23C266.809 53.3433 267.486 52.3867 268.046 51.36C268.652 50.2867 269.002 49.6567 269.096 49.47L276.586 36.1H289.886L281.906 49.47C281.766 49.6567 281.462 50.1467 280.996 50.94C280.529 51.7333 280.016 52.48 279.456 53.18C278.942 53.8333 278.382 54.44 277.776 55C278.616 55.7933 279.292 56.5867 279.806 57.38C280.366 58.1267 280.996 59.13 281.696 60.39L290.586 76Z" fill="#2C1A00"/>
<defs>
<linearGradient id="paint0_linear_1_6" x1="104" y1="27" x2="287" y2="419" gradientUnits="userSpaceOnUse">
<stop stop-color="#E7A445"/>
<stop offset="1" stop-color="#543200"/>
</linearGradient>
</defs>
</svg>
